<svg xmlns="http://www.w3.org/2000/svg" viewBox="0 0 48 48" width="32" height="32">
  <rect width="48" height="48" rx="10" fill="#25D366"/>
  <path d="M34 30c-.5-.3-2.8-1.5-3.2-1.7-.4-.2-.9-.3-1.4.3-.4.5-1.6 1.6-2 1.9-.3.3-.7.4-1.2.15-.5-.25-2-0.75-3.8-2.4-1.4-1.3-2.4-2.7-2.7-3.1-.25-.6 0-.85.15-1.1.15-.2.35-.45.6-.7.25-.25.25-.5.4-.85.15-.3.05-.6-.05-.9-.1-.25-1.2-3-1.7-4.1-.45-1.1-.9-0.95-1.25-0.95-.3 0-.95.05-1.4.05s-1.1.2-1.7.85c-.6.6-2.2 2.2-2.2 5.2 0 3 2.2 5.9 2.6 6.3.35.35 4.6 7.6 11.4 10.4 6.8 2.8 6.8 1.9 7.15 1.7.3-.2 2-1 2.2-2.1.25-1.05.25-1.9.15-2.1-.1-.15-.45-.35-1-.6z" fill="#fff"/>
</svg>