<svg xmlns="http://www.w3.org/2000/svg" viewBox="0 0 48 48" width="48" height="48">
  <defs>
    <linearGradient id="g" x1="0" x2="1" y1="0" y2="1">
      <stop offset="0%" stop-color="#25D366"/>
      <stop offset="100%" stop-color="#128C7E"/>
    </linearGradient>
  </defs>
  <rect width="48" height="48" rx="10" fill="url(#g)"/>
  <path d="M34.5 31.2c-.6-.3-3.4-1.7-3.9-1.9-.5-.2-1-.3-1.5.3-.5.6-1.9 1.9-2.3 2.3-.4.4-.8.5-1.4.2-.6-.3-2.4-.9-4.6-2.9-1.7-1.6-2.8-3.5-3.1-4.1-.3-.6 0-.9.2-1.2.2-.2.5-.6.8-.9.3-.3.3-.6.5-1 .2-.3.1-.7-.05-1-.1-.3-1.5-3.6-2.1-4.9-.55-1.3-1.1-1.1-1.5-1.1-.4 0-1 .05-1.5.05s-1.2.2-1.9.9c-.7.7-2.6 2.5-2.6 6.1 0 3.6 2.7 7.1 3.1 7.6.4.4 5.3 8.3 13.1 11.4 7.8 3.2 7.8 2.1 8.2 1.9.4-.2 2.3-1.2 2.6-2.5.3-1.3.3-2.4.2-2.6-.1-.2-.5-.4-1.1-.7z" fill="#fff"/>
</svg>
